<?xml version="1.0" encoding="utf-8"?><svg width="21" height="16" fill="none" xmlns="http://www.w3.org/2000/svg" viewBox="-1 -1 21 16"><path fill-rule="evenodd" clip-rule="evenodd" d="M13.084 12.042c.478.597 1.05 1.272 1.05 1.272 3.514-.11 4.866-2.388 4.866-2.388 0-5.058-2.29-9.159-2.29-9.159C14.42.071 12.242.117 12.242.117l-.223.252c2.703.817 3.96 1.995 3.96 1.995A13.076 13.076 0 0 0 11.192.856 13.618 13.618 0 0 0 7.98.888c-.083 0-.155.012-.235.025L7.71.92c-.556.047-1.908.251-3.61.99-.588.267-.938.455-.938.455s1.32-1.24 4.183-2.058l-.16-.188S5.007.07 2.717 1.768c0 0-2.29 4.1-2.29 9.158 0 0 1.336 2.278 4.85 2.388 0 0 .589-.707 1.066-1.304-2.02-.597-2.783-1.854-2.783-1.854s.159.11.445.268a.22.22 0 0 0 .064.047c.024.015.048.027.071.039.024.012.048.024.072.04.398.22.795.392 1.16.533.653.252 1.432.503 2.338.676 1.193.22 2.593.298 4.12.015.746-.125 1.51-.345 2.305-.675a9.14 9.14 0 0 0 1.829-.927s-.795 1.288-2.879 1.87zm-5.897-5.78c-.899 0-1.609.81-1.609 1.796 0 .987.726 1.796 1.61 1.796.899 0 1.609-.81 1.609-1.796.015-.986-.71-1.795-1.61-1.795zm5.76 0c-.9 0-1.61.81-1.61 1.796 0 .987.726 1.796 1.61 1.796.899 0 1.609-.809 1.609-1.796 0-.986-.71-1.795-1.61-1.795z" fill="#fff"/></svg>