<?xml version="1.0" encoding="utf-8"?><svg width="237" height="39" fill="none" xmlns="http://www.w3.org/2000/svg" viewBox="-1 -1 237 39"><g clip-path="url(#aka)"><path d="M112.911 13.424a4.359 4.359 0 0 0-2.495-.662c-2.801 0-4.53 1.54-5.187 4.618h-.533c.148-3.075-1.173-4.615-3.962-4.618-2.788-.003-4.517 1.536-5.187 4.618h-.543l.604-4.315H92.19v12.312h3.42v-4.835a5.26 5.26 0 0 1 .862-3.21 3.122 3.122 0 0 1 2.636-1.148c1.047 0 1.785.35 2.212 1.05.428.699.649 1.802.665 3.308v4.835h3.301v-4.835a5.27 5.27 0 0 1 .863-3.21 3.129 3.129 0 0 1 2.637-1.148c1.047 0 1.784.35 2.212 1.05.427.699.649 1.802.664 3.308v4.835h3.302v-4.835a16.26 16.26 0 0 0-.543-4.76 4.216 4.216 0 0 0-1.509-2.358zm13.545.222a9.636 9.636 0 0 0-3.702-.605 6.122 6.122 0 0 0-2.967.728 7.559 7.559 0 0 0-2.523 2.301l2.674 1.754a4.099 4.099 0 0 1 1.288-1.03 3.538 3.538 0 0 1 1.528-.303 4.598 4.598 0 0 1 2.131.383 2.004 2.004 0 0 1 .967 1.253h-3.773a6.515 6.515 0 0 0-2.829.543 3.92 3.92 0 0 0-1.708 1.418 3.45 3.45 0 0 0-.566 1.92c0 1.26.376 2.186 1.128 2.778.751.593 1.851.889 3.301.889a4.446 4.446 0 0 0 3.301-1.172c.792-.775 1.283-1.995 1.471-3.645h.279l-.472 4.533h3.278v-6.243a7.714 7.714 0 0 0-.675-3.55 4.084 4.084 0 0 0-2.131-1.952zm-1.17 7.742a2.226 2.226 0 0 1-1.184.643 8.726 8.726 0 0 1-2.013.184 1.96 1.96 0 0 1-1.245-.326 1.004 1.004 0 0 1-.382-.804c0-.685.542-1.03 1.627-1.03h3.772c-.059.49-.258.954-.575 1.333zm-35.955-8.304h-3.32v12.293h3.32V13.084zM57.088 9.25l-6.919 16.127h3.74l5.065-11.812 2.316 5.384-3.665.019-.853 3.427h6.003l1.288 2.982h3.744L60.847 9.25h-3.76zm23.839 4.273a5.358 5.358 0 0 0-2.995-.761 9.47 9.47 0 0 0-2.494.265 2.765 2.765 0 0 0-1.547 1.271 7.576 7.576 0 0 0-.868 3.082h-.396l.604-4.292h-3.434v12.29h3.42v-4.836a5.26 5.26 0 0 1 .862-3.21 3.127 3.127 0 0 1 2.637-1.148c1.235 0 2.084.345 2.556 1.03.471.686.721 1.792.721 3.31v4.853h3.302v-4.835a14.092 14.092 0 0 0-.604-4.557 4.49 4.49 0 0 0-1.764-2.462zm6.791-4.273a1.756 1.756 0 0 0-1.264.506 1.746 1.746 0 0 0 0 2.457 1.758 1.758 0 0 0 1.264.506 1.577 1.577 0 0 0 1.189-.506 1.746 1.746 0 0 0 0-2.457 1.58 1.58 0 0 0-1.189-.506zm48.33 0h-3.301v3.833h-2.231v3.427h2.231v2.477a16.301 16.301 0 0 0 .363 4.173 2.667 2.667 0 0 0 1.849 1.711c.99.338 2.693.506 5.107.506V22.07c-.98.027-1.96-.018-2.933-.137a1.052 1.052 0 0 1-.887-.686 8.645 8.645 0 0 1-.179-2.24V16.51h3.999v-3.427h-3.999l-.019-3.833zm37.582 4.273a5.366 5.366 0 0 0-2.995-.761 9.474 9.474 0 0 0-2.494.264 2.773 2.773 0 0 0-1.552 1.272 7.572 7.572 0 0 0-.863 3.082h-.401l.604-4.292h-3.419v12.29h3.419v-4.836a5.256 5.256 0 0 1 .863-3.21 3.125 3.125 0 0 1 2.636-1.148c1.231 0 2.085.345 2.552 1.03.466.686.726 1.792.726 3.309v4.854h3.301v-4.835a13.946 13.946 0 0 0-.604-4.557 4.46 4.46 0 0 0-1.773-2.462zm41.987 4.396a5.152 5.152 0 0 1-.886 3.204 3.068 3.068 0 0 1-2.613 1.149c-1.236 0-2.094-.342-2.575-1.026-.472-.685-.703-1.796-.703-3.308v-4.854h-3.301v4.835c-.047 1.54.15 3.078.585 4.556a4.68 4.68 0 0 0 1.768 2.477c.915.532 1.962.79 3.019.747a9.242 9.242 0 0 0 2.471-.26 2.706 2.706 0 0 0 1.551-1.253 7.507 7.507 0 0 0 .882-3.1h.406l-.604 4.291h3.419V13.088h-3.419v4.83zm18.699-1.612a5.669 5.669 0 0 0-1.853-2.396 4.237 4.237 0 0 0-2.594-.87 4.313 4.313 0 0 0-2.976 1.11 5.59 5.59 0 0 0-1.627 3.205h-.382l.198-4.254V9.25h-3.428v16.127h3.419l-.198-4.353h.301c.371 3.104 1.932 4.656 4.683 4.656a4.344 4.344 0 0 0 2.575-.827 5.714 5.714 0 0 0 1.887-2.198c.451-.9.685-1.895.684-2.902a8.43 8.43 0 0 0-.689-3.446zm-3.018 4.618c-.265.422-.64.764-1.085.988a3.354 3.354 0 0 1-1.589.359 3.295 3.295 0 0 1-1.651-.42 3.392 3.392 0 0 1-1.165-1.13 2.581 2.581 0 0 1-.424-1.371c0-.484.148-.956.424-1.352.291-.421.686-.76 1.146-.983a3.768 3.768 0 0 1 1.67-.36 2.992 2.992 0 0 1 2.212.832 2.754 2.754 0 0 1 .844 2.08c0 .48-.132.949-.382 1.357zm-85.224-7.841h-3.32v12.293h3.32V13.084zm56.857-3.834h-3.32v16.127h3.32V9.25zm-58.488 0a1.764 1.764 0 0 0-1.269.506 1.745 1.745 0 0 0 0 2.457 1.773 1.773 0 0 0 1.269.506 1.575 1.575 0 0 0 1.183-.506 1.745 1.745 0 0 0 0-2.457 1.57 1.57 0 0 0-1.183-.506zm45.83 3.45a5.802 5.802 0 0 1 1.887.26c.55.205 1.026.57 1.367 1.05a6.868 6.868 0 0 1 1.09 2.254l2.985-1.853c-.764-1.815-1.756-3.124-2.976-3.927a7.532 7.532 0 0 0-4.343-1.234 7.116 7.116 0 0 0-3.882 1.03 6.506 6.506 0 0 0-2.494 2.836 9.619 9.619 0 0 0-.845 4.131 10.025 10.025 0 0 0 .845 4.193 6.724 6.724 0 0 0 2.494 2.902 7.065 7.065 0 0 0 3.882 1.05 7.9 7.9 0 0 0 4.244-1.13 7.453 7.453 0 0 0 2.853-3.384l-3.075-1.891a4.625 4.625 0 0 1-1.466 2.32 4.05 4.05 0 0 1-2.358.625 4.239 4.239 0 0 1-2.872-.988c-.755-.672-1.128-1.891-1.128-3.71 0-1.665.364-2.837 1.085-3.508a3.802 3.802 0 0 1 2.707-1.026zm-32.828.908a5.652 5.652 0 0 0-3.099-.889 5.758 5.758 0 0 0-3.117.89 6.223 6.223 0 0 0-2.254 2.362 6.464 6.464 0 0 0-.826 3.205 6.638 6.638 0 0 0 .826 3.262 6.452 6.452 0 0 0 2.235 2.363 5.924 5.924 0 0 0 3.136.865 5.806 5.806 0 0 0 3.099-.865 6.432 6.432 0 0 0 2.23-2.363 6.593 6.593 0 0 0 .826-3.262 6.41 6.41 0 0 0-.826-3.205 6.265 6.265 0 0 0-2.23-2.363zm-1.028 7.86a2.599 2.599 0 0 1-2.09.908 2.628 2.628 0 0 1-2.094-.908 3.478 3.478 0 0 1-.764-2.278 3.366 3.366 0 0 1 .764-2.24 2.616 2.616 0 0 1 2.094-.945 2.585 2.585 0 0 1 2.09.907 3.39 3.39 0 0 1 .764 2.26 3.42 3.42 0 0 1-.764 2.296z" fill="#62154B"/><path d="M36.917 18.5a18.463 18.463 0 0 1-4.428 12.02V6.48a18.459 18.459 0 0 1 4.428 12.02z" fill="#E7AE44"/><path d="M32.489 6.48v24.04c-.382.444-.788.874-1.212 1.285a18.425 18.425 0 0 1-4.924 3.418v-4.15a2.065 2.065 0 0 0-1.363-1.943l-5.588-2.363-5.66-2.41-.117-.053a2.038 2.038 0 0 0-2.198.515l-6.508 6.254a18.618 18.618 0 0 1-3.415-5.247l4.801-4.646 2.769-2.68L25.193 2.902l1.16-1.13A18.738 18.738 0 0 1 31.47 5.38c.354.354.693.718 1.019 1.101zm-6.131 19.38V13.5a1.35 1.35 0 0 0-.83-1.222 1.341 1.341 0 0 0-1.448.276l-.028.028-8.843 8.527 5.57 2.363 4.414 1.891 1.165.496z" fill="#591449"/><path d="m26.353 1.773-1.16 1.13L9.073 18.5l-2.767 2.68-4.801 4.646a18.548 18.548 0 0 1-1.143-10.96 18.521 18.521 0 0 1 5.277-9.67 18.43 18.43 0 0 1 20.715-3.424z" fill="#E7AE44"/><path d="M26.353 31.073v4.15c-.377.184-.764.35-1.16.506v-6.514a2.059 2.059 0 0 1 1.16 1.858zm0-17.527v12.29l-1.16-.473v-9.765a.44.44 0 0 0 0-.114.51.51 0 0 0-.943-.09l-3.471 8.088-5.57-2.364 8.843-8.555a1.366 1.366 0 0 1 2.301.983z" fill="#EFF0F1"/><path d="M25.193 29.215v6.513A18.428 18.428 0 0 1 18.458 37a18.22 18.22 0 0 1-3.3-.293l4.239-9.955 5.588 2.364.203.085.005.014zm0-13.617v9.76l-4.414-1.89 3.428-8.092a.514.514 0 0 1 .986.222z" fill="#EED8D1"/><path d="m19.397 26.753-4.216 9.954a18.38 18.38 0 0 1-10.262-5.634l6.48-6.272.127-.123a2.039 2.039 0 0 1 2.07-.393l.118.052 5.683 2.416z" fill="#EFF0F1"/></g><defs><clipPath id="aka"><path fill="#fff" d="M0 0h235v37H0z"/></clipPath></defs></svg>