<?xml version="1.0" encoding="utf-8"?><svg width="23" height="17" fill="none" xmlns="http://www.w3.org/2000/svg" viewBox="-1 -1 23 17"><path fill-rule="evenodd" clip-rule="evenodd" d="M18.21 1.14c.849.233 1.517.92 1.744 1.791.413 1.58.413 4.877.413 4.877s0 3.297-.413 4.877a2.505 2.505 0 0 1-1.744 1.792c-1.54.423-7.71.423-7.71.423s-6.17 0-7.71-.423a2.506 2.506 0 0 1-1.744-1.792C.633 11.105.633 7.808.633 7.808s0-3.296.413-4.877a2.505 2.505 0 0 1 1.744-1.79C4.33.716 10.5.716 10.5.716s6.17 0 7.71.423zM8.65 5.033V11.2l4.933-3.083L8.65 5.033z" fill="#fff"/></svg>