<?xml version="1.0" encoding="utf-8"?><svg width="23" height="14" fill="none" xmlns="http://www.w3.org/2000/svg" viewBox="-1 -1 23 14"><path fill-rule="evenodd" clip-rule="evenodd" d="M11.468 11.571s.356-.038.538-.23c.167-.177.162-.51.162-.51s-.023-1.552.712-1.782c.724-.225 1.653 1.502 2.64 2.166.745.502 1.31.392 1.31.392l2.636-.036s1.378-.083.725-1.147c-.054-.087-.381-.787-1.96-2.225-1.653-1.506-1.43-1.262.56-3.867 1.212-1.586 1.696-2.554 1.545-2.968-.144-.396-1.036-.29-1.036-.29l-2.967.017s-.22-.03-.383.067c-.16.093-.263.312-.263.312s-.469 1.227-1.095 2.271c-1.321 2.202-1.85 2.318-2.066 2.182-.502-.32-.377-1.28-.377-1.964 0-2.134.33-3.024-.642-3.254-.322-.077-.56-.127-1.385-.136C9.064.56 8.168.573 7.66.817c-.338.162-.598.523-.439.544.196.026.64.118.875.432.304.407.294 1.318.294 1.318s.175 2.513-.408 2.824c-.4.214-.948-.222-2.127-2.22C5.252 2.69 4.797 1.56 4.797 1.56s-.088-.211-.246-.325c-.19-.137-.455-.18-.455-.18l-2.82.018s-.423.012-.578.193c-.138.16-.011.492-.011.492s2.207 5.07 4.707 7.625c2.292 2.342 4.894 2.188 4.894 2.188h1.18z" fill="#fff"/></svg>