<?xml version="1.0" encoding="utf-8"?><svg width="23" height="17" fill="none" xmlns="http://www.w3.org/2000/svg" viewBox="-1 -1 23 17"><path fill-rule="evenodd" clip-rule="evenodd" d="M19.954 2.931a2.505 2.505 0 0 0-1.744-1.79C16.67.716 10.5.716 10.5.716s-6.17 0-7.71.423A2.506 2.506 0 0 0 1.046 2.93C.633 4.511.633 7.808.633 7.808s0 3.297.413 4.877a2.506 2.506 0 0 0 1.744 1.792c1.54.423 7.71.423 7.71.423s6.17 0 7.71-.423a2.505 2.505 0 0 0 1.744-1.792c.413-1.58.413-4.877.413-4.877s0-3.296-.413-4.877z" fill="#fff"/><path fill-rule="evenodd" clip-rule="evenodd" d="M8.65 11.2V5.033l4.933 3.084L8.65 11.2z" fill="#222"/></svg>