<?xml version="1.0" encoding="utf-8"?><svg width="22" height="19" fill="none" xmlns="http://www.w3.org/2000/svg" viewBox="-1 -1 22 19"><path fill-rule="evenodd" clip-rule="evenodd" d="M7.545 16c-.618 0-.513-.232-.726-.816L5 9.243 19 1" fill="#E0E0E0"/><path fill-rule="evenodd" clip-rule="evenodd" d="M7 16c.41 0 .59-.224.818-.49L10 12.967 7.278 11" fill="#999"/><path fill-rule="evenodd" clip-rule="evenodd" d="m7.835 11.219 7.412 5.55c.846.472 1.456.228 1.667-.796L19.93 1.564C20.24.31 19.459-.26 18.65.112L.934 7.035c-1.21.492-1.202 1.176-.22 1.48L5.26 9.953l10.525-6.73c.497-.304.953-.14.578.196" fill="url(#ala)"/><defs><linearGradient id="ala" x1="8.592" y1="8.572" x2="10.605" y2="14.999" gradientUnits="userSpaceOnUse"><stop stop-color="#EFF7FC"/><stop offset="1" stop-color="#fff"/></linearGradient></defs></svg>