<?xml version="1.0" encoding="utf-8"?><svg width="21" height="16" fill="none" xmlns="http://www.w3.org/2000/svg" viewBox="-1 -1 21 16"><path d="M14.134 13.314s-.573-.675-1.05-1.273c2.084-.58 2.879-1.869 2.879-1.869a9.144 9.144 0 0 1-1.83.927c-.794.33-1.557.55-2.305.675a11.276 11.276 0 0 1-4.119-.015 13.477 13.477 0 0 1-2.337-.676 9.38 9.38 0 0 1-1.161-.534c-.048-.031-.095-.047-.143-.078a.221.221 0 0 1-.064-.048c-.286-.157-.445-.267-.445-.267s.763 1.257 2.783 1.854c-.477.597-1.066 1.304-1.066 1.304-3.514-.11-4.85-2.388-4.85-2.388 0-5.058 2.29-9.159 2.29-9.159C5.006.071 7.185.117 7.185.117l.159.19C4.48 1.122 3.16 2.363 3.16 2.363s.35-.188.939-.455C5.8 1.17 7.153.966 7.71.919c.095-.016.174-.031.27-.031a13.096 13.096 0 0 1 7.999 1.476s-1.257-1.178-3.96-1.995l.223-.251S14.42.07 16.71 1.768c0 0 2.29 4.1 2.29 9.158 0 0-1.352 2.278-4.866 2.388z" fill="#fff"/><path fill-rule="evenodd" clip-rule="evenodd" d="M5.578 8.058c0-.987.71-1.795 1.61-1.795.899 0 1.624.808 1.609 1.795 0 .987-.71 1.796-1.61 1.796-.883 0-1.609-.81-1.609-1.796zm5.76 0c0-.986.709-1.795 1.608-1.795.9 0 1.61.809 1.61 1.795 0 .987-.71 1.796-1.61 1.796-.883 0-1.609-.81-1.609-1.796z" fill="#222"/></svg>