<?xml version="1.0" encoding="utf-8"?><svg width="25" height="18" fill="none" xmlns="http://www.w3.org/2000/svg" viewBox="-1 -1 25 18"><path d="M8.099.235c-.745 0-2.992.87-3.395 1.043-.403.174-.85.716-1.358 1.611-.508.895-.917 1.941-1.579 3.48C1.105 7.908.95 10.875.972 11.78c.022.905.131 1.612 1.104 2.148.973.535 1.833 1.095 2.738 1.432.906.337 1.524.579 1.943.242.42-.337.696-.927.696-.927s.397-.526-.353-.842c-.751-.316-1.126-.537-1.093-.864.033-.326.088-.505.275-.463.188.043.63.8 2.33 1.148 1.7.347 3.358.295 3.358.295s1.658.052 3.358-.295c1.7-.348 2.142-1.105 2.33-1.147.188-.043.243.136.276.463.033.326-.343.547-1.093.863-.751.316-.354.842-.354.842s.277.59.696.927c.42.337 1.038.095 1.943-.242.906-.337 1.766-.897 2.738-1.432.973-.536 1.082-1.243 1.104-2.148.022-.906-.132-3.873-.795-5.412-.662-1.539-1.07-2.585-1.578-3.48s-.955-1.437-1.358-1.61c-.403-.175-2.65-1.044-3.395-1.044-.746 0-.966.495-.966.495l-.26.548S12.871.962 11.982.961c-.89 0-2.658.317-2.658.317L9.064.73S8.845.235 8.1.235zm.08 6.57h.028c1.087 0 1.968.907 1.968 2.026 0 1.118-.881 2.025-1.968 2.025-1.086 0-1.967-.907-1.967-2.025 0-1.108.864-2.01 1.94-2.025zm7.554 0h.027c1.076.016 1.94.918 1.94 2.026 0 1.118-.88 2.025-1.967 2.025-1.086 0-1.967-.907-1.967-2.025 0-1.119.88-2.025 1.967-2.025z" fill="#222"/></svg>