<?xml version="1.0" encoding="utf-8"?><svg width="25" height="16" fill="none" xmlns="http://www.w3.org/2000/svg" viewBox="0 0 25 16"><path d="M12.805.244c-1.424 0-2.46-.024-3.495.006C7.482.3 5.652.348 3.83.54c-1.263.133-2.24.932-2.57 2.112-.224.804-.32 1.626-.38 2.452C.765 6.634.785 8.167.821 9.698c.029 1.187.13 2.372.413 3.536.295 1.215 1.37 2.072 2.664 2.19 1.516.14 3.034.212 4.553.273 2.508.101 5.017.07 7.525.027a56.105 56.105 0 0 0 5.029-.3c1.326-.142 2.321-.909 2.643-2.134.209-.795.307-1.607.365-2.425.113-1.588.068-3.177.05-4.765a14.768 14.768 0 0 0-.377-3.254C23.365 1.494 22.38.668 20.943.532 19.477.394 18.006.346 16.535.284c-1.373-.059-2.745-.006-3.73-.04zM9.492 8.208V4.955c0-.348.006-.351.34-.186.415.206.828.416 1.243.62 1.776.88 3.552 1.758 5.326 2.639.084.04.208.059.208.177 0 .088-.098.111-.167.145-2.224 1.105-4.45 2.208-6.672 3.316-.243.121-.282.046-.28-.178.006-1.092.002-2.186.002-3.28z" fill="#222"/></svg>