<?xml version="1.0" encoding="utf-8"?><svg width="21" height="14" fill="none" xmlns="http://www.w3.org/2000/svg" viewBox="0 0 21 14"><path d="M15.754 6.99c.373.185.734.4 1.08.639a10.324 10.324 0 0 1 3.395 3.983c.28.577.501 1.176.676 1.793.014.047.009.065-.047.065-1.182-.002-2.364-.002-3.546 0-.063 0-.074-.032-.089-.078a7.32 7.32 0 0 0-1.139-2.197c-.771-1.01-1.742-1.742-2.962-2.126a5.878 5.878 0 0 0-1.047-.22c-.043-.005-.055.008-.052.047.002.02 0 .04 0 .061v4.415c0 .097 0 .097-.098.097-.472.002-.944-.006-1.415-.044-1.785-.142-3.47-.614-5.002-1.565a9.546 9.546 0 0 1-1.952-1.607c-1.127-1.208-1.905-2.62-2.44-4.174a15.762 15.762 0 0 1-.64-2.57A20.25 20.25 0 0 1 .264 1.72C.236 1.355.224.99.206.623.203.553.216.529.293.529 1.419.532 2.546.532 3.672.53c.059 0 .08.009.082.076.009.525.043 1.05.101 1.572.105.942.29 1.867.592 2.766A8.89 8.89 0 0 0 5.525 7.15c.544.795 1.21 1.46 2.057 1.93.305.169.625.302.962.394.067.018.081.005.081-.061-.002-.544 0-1.088 0-1.631V.636c0-.124-.013-.104.103-.104 1.069 0 2.137 0 3.205-.002.072 0 .092.015.092.09-.002 1.646-.002 3.292-.002 4.938 0 .096 0 .093.097.078.727-.11 1.354-.442 1.927-.885.881-.682 1.55-1.541 2.075-2.518a8.006 8.006 0 0 0 .666-1.648c.01-.04.027-.055.072-.055 1.078.002 2.156.002 3.235.002.014 0 .03.002.062.006-.565 2.772-2.087 4.878-4.403 6.451z" fill="#222"/></svg>