<svg width="16" height="16" viewBox="0 0 16 16" fill="none" xmlns="http://www.w3.org/2000/svg">
<path d="M14.0245 10.7161L11.9079 10.4745C11.3995 10.4161 10.8995 10.5911 10.5412 10.9495L9.00788 12.4828C6.64955 11.2828 4.71621 9.35781 3.51621 6.99115L5.05788 5.44948C5.41621 5.09115 5.59121 4.59115 5.53288 4.08281L5.29121 1.98281C5.19121 1.14115 4.48288 0.507812 3.63288 0.507812H2.19121C1.24955 0.507812 0.466212 1.29115 0.524546 2.23281C0.966212 9.34948 6.65788 15.0328 13.7662 15.4745C14.7079 15.5328 15.4912 14.7495 15.4912 13.8078V12.3661C15.4995 11.5245 14.8662 10.8161 14.0245 10.7161Z" fill="#333333"/>
</svg>
