<svg width="19" height="14" viewBox="0 0 19 14" fill="none" xmlns="http://www.w3.org/2000/svg">
<path d="M14.1339 13.314C14.1339 13.314 13.5614 12.6385 13.0844 12.0415C15.1676 11.4603 15.9627 10.1721 15.9627 10.1721C15.3107 10.5962 14.6905 10.8947 14.1339 11.0989C13.3388 11.4288 12.5755 11.6488 11.8281 11.7745C10.3015 12.0572 8.90211 11.9787 7.70945 11.7588C6.80303 11.5859 6.02382 11.3346 5.37184 11.0832C5.00609 10.9418 4.60853 10.769 4.21098 10.5491C4.16327 10.5177 4.11557 10.502 4.06786 10.4706C4.03606 10.4548 4.02015 10.4391 4.00425 10.4234C3.71801 10.2663 3.55899 10.1564 3.55899 10.1564C3.55899 10.1564 4.32229 11.4131 6.34187 12.0101C5.8648 12.6071 5.27642 13.314 5.27642 13.314C1.76205 13.2041 0.42627 10.9261 0.42627 10.9261C0.42627 5.86759 2.71618 1.76733 2.71618 1.76733C5.00609 0.070677 7.18468 0.117806 7.18468 0.117806L7.3437 0.306324C4.48132 1.12323 3.16144 2.3643 3.16144 2.3643C3.16144 2.3643 3.51128 2.17579 4.09966 1.90872C5.80119 1.17036 7.15288 0.966134 7.70945 0.919005C7.80486 0.903295 7.88437 0.887586 7.97979 0.887586C8.94982 0.761907 10.0471 0.730488 11.192 0.856166C12.7027 1.02897 14.3247 1.46885 15.9786 2.3643C15.9786 2.3643 14.7223 1.18607 12.0189 0.369163L12.2416 0.117806C12.2416 0.117806 14.4202 0.070677 16.7101 1.76733C16.7101 1.76733 19 5.86759 19 10.9261C19 10.9261 17.6483 13.2041 14.1339 13.314Z" fill="white"/>
<path fill-rule="evenodd" clip-rule="evenodd" d="M5.57812 8.0581C5.57812 7.07144 6.28808 6.2627 7.18736 6.2627C8.08664 6.2627 8.81238 7.07144 8.7966 8.0581C8.7966 9.04476 8.08664 9.8535 7.18736 9.8535C6.30386 9.8535 5.57812 9.04476 5.57812 8.0581ZM11.3371 8.05822C11.3371 7.07155 12.047 6.26281 12.9463 6.26281C13.8456 6.26281 14.5555 7.07155 14.5555 8.05822C14.5555 9.04488 13.8456 9.85362 12.9463 9.85362C12.0628 9.85362 11.3371 9.04488 11.3371 8.05822Z" fill="#222222"/>
</svg>
