<svg width="19" height="14" viewBox="0 0 19 14" fill="none" xmlns="http://www.w3.org/2000/svg">
<path fill-rule="evenodd" clip-rule="evenodd" d="M13.0844 12.0416C13.5615 12.6386 14.1339 13.3141 14.1339 13.3141C17.6483 13.2041 19 10.9262 19 10.9262C19 5.86765 16.7101 1.76739 16.7101 1.76739C14.4202 0.070738 12.2416 0.117867 12.2416 0.117867L12.019 0.369224C14.7223 1.18613 15.9786 2.36437 15.9786 2.36437C14.3248 1.46891 12.7028 1.02903 11.192 0.856227C10.0471 0.730549 8.94985 0.761968 7.97982 0.887647C7.89652 0.887647 7.82535 0.899619 7.74513 0.913112C7.73346 0.915075 7.7216 0.917071 7.70948 0.919066C7.15291 0.966195 5.80122 1.17042 4.09969 1.90878C3.51132 2.17585 3.16147 2.36437 3.16147 2.36437C3.16147 2.36437 4.48135 1.12329 7.34373 0.306385L7.18471 0.117867C7.18471 0.117867 5.00612 0.070738 2.71621 1.76739C2.71621 1.76739 0.4263 5.86765 0.4263 10.9262C0.4263 10.9262 1.76208 13.2041 5.27645 13.3141C5.27645 13.3141 5.86483 12.6071 6.3419 12.0102C4.32232 11.4132 3.55902 10.1564 3.55902 10.1564C3.55902 10.1564 3.71804 10.2664 4.00428 10.4235C4.02018 10.4392 4.03609 10.4549 4.06789 10.4706C4.09174 10.4863 4.1156 10.4981 4.13945 10.5099C4.1633 10.5217 4.18716 10.5335 4.21101 10.5492C4.60856 10.7691 5.00612 10.9419 5.37187 11.0833C6.02385 11.3346 6.80306 11.586 7.70948 11.7588C8.90214 11.9788 10.3015 12.0573 11.8281 11.7745C12.5755 11.6488 13.3388 11.4289 14.1339 11.099C14.6905 10.8948 15.3107 10.5963 15.9627 10.1721C15.9627 10.1721 15.1676 11.4603 13.0844 12.0416ZM7.18729 6.26282C6.28801 6.26282 5.57805 7.07156 5.57805 8.05822C5.57805 9.04488 6.30378 9.85362 7.18729 9.85362C8.08657 9.85362 8.79652 9.04488 8.79652 8.05822C8.8123 7.07156 8.08657 6.26282 7.18729 6.26282ZM12.9462 6.26293C12.0469 6.26293 11.337 7.07167 11.337 8.05834C11.337 9.045 12.0627 9.85374 12.9462 9.85374C13.8455 9.85374 14.5555 9.045 14.5555 8.05834C14.5555 7.07167 13.8455 6.26293 12.9462 6.26293Z" fill="white"/>
</svg>
