<svg width="21" height="12" viewBox="0 0 21 12" fill="none" xmlns="http://www.w3.org/2000/svg">
<path fill-rule="evenodd" clip-rule="evenodd" d="M11.4677 11.5714C11.4677 11.5714 11.8239 11.5325 12.0063 11.3402C12.1733 11.164 12.1675 10.8315 12.1675 10.8315C12.1675 10.8315 12.1453 9.27868 12.8797 9.04941C13.6036 8.82393 14.5331 10.551 15.5195 11.2152C16.2646 11.7173 16.8301 11.6074 16.8301 11.6074L19.466 11.5714C19.466 11.5714 20.8442 11.488 20.1908 10.4241C20.1368 10.3369 19.8096 9.63679 18.2315 8.19864C16.5782 6.69323 16.8002 6.93671 18.7904 4.33232C20.0026 2.74638 20.4871 1.77814 20.3356 1.36413C20.1918 0.968119 19.3 1.07328 19.3 1.07328L16.3331 1.09128C16.3331 1.09128 16.113 1.06191 15.9499 1.1576C15.7907 1.25139 15.6874 1.47024 15.6874 1.47024C15.6874 1.47024 15.2183 2.69712 14.5919 3.74115C13.2706 5.94289 12.7427 6.05942 12.5265 5.923C12.0237 5.60373 12.1491 4.64212 12.1491 3.95905C12.1491 1.82456 12.4792 0.93496 11.5073 0.704743C11.1849 0.628003 10.9475 0.577792 10.1223 0.569265C9.06351 0.558844 8.16784 0.573055 7.66017 0.816535C7.32237 0.97854 7.06177 1.34045 7.22102 1.36129C7.41695 1.38687 7.86092 1.47876 8.09642 1.7933C8.40045 2.19973 8.38983 3.11113 8.38983 3.11113C8.38983 3.11113 8.56452 5.62362 7.98157 5.93531C7.58199 6.14943 7.03378 5.71268 5.85533 3.71462C5.2521 2.69143 4.79655 1.56024 4.79655 1.56024C4.79655 1.56024 4.70872 1.34897 4.5514 1.23528C4.36126 1.09791 4.09584 1.05528 4.09584 1.05528L1.27662 1.07328C1.27662 1.07328 0.852911 1.08465 0.697521 1.2656C0.559503 1.42571 0.686904 1.75825 0.686904 1.75825C0.686904 1.75825 2.89422 6.82776 5.39398 9.38289C7.68623 11.7249 10.2883 11.5714 10.2883 11.5714H11.4677Z" fill="white"/>
</svg>
