<svg width="21" height="15" viewBox="0 0 21 15" fill="none" xmlns="http://www.w3.org/2000/svg">
<path fill-rule="evenodd" clip-rule="evenodd" d="M19.9543 2.93145C19.7274 2.05963 19.0587 1.37311 18.2096 1.14012C16.6708 0.716675 10.5 0.716675 10.5 0.716675C10.5 0.716675 4.32918 0.716675 2.79032 1.14012C1.94123 1.37311 1.27253 2.05963 1.0456 2.93145C0.633331 4.51152 0.633331 7.80834 0.633331 7.80834C0.633331 7.80834 0.633331 11.1051 1.0456 12.6852C1.27253 13.5571 1.94123 14.2436 2.79032 14.4767C4.32918 14.9 10.5 14.9 10.5 14.9C10.5 14.9 16.6708 14.9 18.2096 14.4767C19.0587 14.2436 19.7274 13.5571 19.9543 12.6852C20.3667 11.1051 20.3667 7.80834 20.3667 7.80834C20.3667 7.80834 20.3667 4.51152 19.9543 2.93145Z" fill="white"/>
<path fill-rule="evenodd" clip-rule="evenodd" d="M8.65 11.2V5.03333L13.5833 8.11678L8.65 11.2Z" fill="#222222"/>
</svg>
