<svg width="20" height="17" viewBox="0 0 20 17" fill="none" xmlns="http://www.w3.org/2000/svg">
<path fill-rule="evenodd" clip-rule="evenodd" d="M7.54545 16C6.92697 16 7.03207 15.7682 6.81876 15.1838L5 9.24304L19 1" fill="#E0E0E0"/>
<path fill-rule="evenodd" clip-rule="evenodd" d="M7 16C7.40909 16 7.58984 15.7758 7.81818 15.5097L10 12.967L7.27845 11" fill="#999999"/>
<path fill-rule="evenodd" clip-rule="evenodd" d="M7.83511 11.2189L15.247 16.7684C16.0928 17.2414 16.7032 16.9965 16.9139 15.9726L19.931 1.56445C20.2398 0.30941 19.4589 -0.259816 18.6497 0.112461L0.93382 7.03535C-0.275459 7.5269 -0.268408 8.21061 0.713393 8.51526L5.2597 9.95328L15.7849 3.22393C16.2818 2.91858 16.7378 3.08274 16.3635 3.41939" fill="url(#paint0_linear_2037_4260)"/>
<defs>
<linearGradient id="paint0_linear_2037_4260" x1="8.59193" y1="8.5724" x2="10.6054" y2="14.9992" gradientUnits="userSpaceOnUse">
<stop stop-color="#EFF7FC"/>
<stop offset="1" stop-color="white"/>
</linearGradient>
</defs>
</svg>
