<svg width="23" height="16" viewBox="0 0 23 16" fill="none" xmlns="http://www.w3.org/2000/svg">
<path d="M8.09896 0.235352C7.35371 0.235352 5.1069 1.10442 4.70392 1.27815C4.30094 1.45188 3.85339 1.99414 3.34552 2.88912C2.83765 3.7841 2.42949 4.82996 1.76705 6.36885C1.10461 7.90774 0.95013 10.8751 0.972211 11.7806C0.994293 12.6861 1.10307 13.3929 2.07592 13.9286C3.04876 14.4642 3.90886 15.0239 4.81419 15.3609C5.71953 15.6978 6.3376 15.9398 6.75714 15.6028C7.17669 15.2659 7.45293 14.6764 7.45293 14.6764C7.45293 14.6764 7.85044 14.15 7.09967 13.8341C6.34891 13.5182 5.97358 13.2969 6.0067 12.9705C6.03982 12.6441 6.09469 12.4654 6.28238 12.5075C6.47007 12.5496 6.912 13.3075 8.61226 13.655C10.3125 14.0024 11.9702 13.95 11.9702 13.95C11.9702 13.95 13.6279 14.0024 15.3282 13.655C17.0284 13.3075 17.4704 12.5496 17.658 12.5075C17.8457 12.4653 17.9006 12.6441 17.9337 12.9705C17.9669 13.2969 17.5915 13.5182 16.8408 13.8341C16.09 14.15 16.4875 14.6764 16.4875 14.6764C16.4875 14.6764 16.7637 15.2659 17.1833 15.6028C17.6028 15.9398 18.2209 15.6978 19.1262 15.3609C20.0316 15.0239 20.8917 14.4642 21.8645 13.9286C22.8374 13.3929 22.9461 12.6861 22.9682 11.7806C22.9903 10.8751 22.8358 7.90774 22.1734 6.36885C21.5109 4.82996 21.1028 3.7841 20.5949 2.88912C20.087 1.99414 19.6395 1.45188 19.2365 1.27815C18.8335 1.10442 16.5867 0.235352 15.8415 0.235352C15.0962 0.235352 14.8759 0.730461 14.8759 0.730461L14.6163 1.27815C14.6163 1.27815 12.8706 0.961875 11.9817 0.961421C11.0927 0.960968 9.32415 1.27815 9.32415 1.27815L9.06458 0.730461C9.06458 0.730461 8.8442 0.235352 8.09896 0.235352ZM8.17995 6.80579C8.18906 6.80573 8.19817 6.80573 8.20727 6.80579C9.29381 6.80579 10.1746 7.71247 10.1746 8.8309C10.1746 9.94934 9.29381 10.856 8.20727 10.856C7.12074 10.856 6.23993 9.94934 6.23993 8.8309C6.23983 7.72336 7.1041 6.82118 8.17995 6.80579ZM15.7332 6.80579C15.7423 6.80573 15.7514 6.80573 15.7605 6.80579C16.8363 6.82118 17.7006 7.72336 17.7005 8.8309C17.7005 9.94934 16.8197 10.856 15.7331 10.856C14.6466 10.856 13.7658 9.94934 13.7658 8.8309C13.7658 7.71247 14.6466 6.80579 15.7332 6.80579Z" fill="#222222"/>
</svg>
