<svg width="25" height="16" viewBox="0 0 25 16" fill="none" xmlns="http://www.w3.org/2000/svg">
<path d="M12.8054 0.244183C11.3812 0.244183 10.3452 0.219803 9.30989 0.249516C7.48162 0.301324 5.65175 0.347798 3.83065 0.539792C2.56664 0.673121 1.58955 1.47233 1.2596 2.65249C1.03565 3.45551 0.940806 4.27834 0.879439 5.10422C0.766268 6.63408 0.786192 8.16698 0.822056 9.6976C0.850748 10.8846 0.951964 12.0701 1.23489 13.2342C1.52977 14.4487 2.6041 15.3058 3.89919 15.4247C5.41505 15.5641 6.9325 15.6357 8.45234 15.6966C10.9604 15.798 13.4693 15.7675 15.9766 15.7241C17.6543 15.6951 19.3335 15.6045 21.0056 15.4247C22.3325 15.2822 23.3272 14.515 23.6491 13.2899C23.858 12.4945 23.956 11.6831 24.0142 10.8648C24.1273 9.27704 24.0819 7.68776 24.0636 6.1C24.0508 5.00822 23.9416 3.91721 23.6866 2.84601C23.3654 1.49443 22.3811 0.667789 20.9426 0.532174C19.477 0.394274 18.0065 0.345512 16.5353 0.2838C15.1621 0.225136 13.7897 0.277705 12.8054 0.244183ZM9.4924 8.20812C9.4924 7.12396 9.4916 6.03981 9.4924 4.95489C9.4924 4.60671 9.49798 4.60366 9.83191 4.76899C10.2471 4.9747 10.66 5.18498 11.0752 5.38992C12.8509 6.26913 14.6265 7.14682 16.4014 8.02755C16.4851 8.0687 16.6094 8.08698 16.6094 8.20507C16.6094 8.29269 16.5106 8.31631 16.4421 8.34983C14.2177 9.45532 11.9917 10.5578 9.76974 11.6663C9.52746 11.7874 9.48761 11.712 9.48921 11.488C9.49558 10.3962 9.4924 9.30218 9.4924 8.20812Z" fill="#222222"/>
</svg>
