<svg width="22" height="19" viewBox="0 0 22 19" fill="none" xmlns="http://www.w3.org/2000/svg">
<path d="M21.2383 0.941162C21.1649 0.941162 21.081 0.951644 21.0076 0.983091L0.745299 8.6876C0.168771 8.90773 0.189735 9.71487 0.766264 9.91404L5.46235 11.4969L8.29258 17.1678L8.30306 17.1783C8.35547 17.2831 8.46029 17.346 8.5756 17.346C8.63849 17.346 8.71187 17.325 8.77476 17.2726L11.4268 15.0189L8.46029 12.7757L8.69091 15.7317L6.56299 11.3187L17.8839 4.51564L8.46029 12.7652L15.7979 18.3314C16.039 18.52 16.322 18.6039 16.6051 18.6039C17.1816 18.6039 17.7476 18.2265 17.9049 17.5871L21.8672 1.72734C21.972 1.32901 21.6366 0.941162 21.2383 0.941162Z" fill="#222222"/>
</svg>
