<svg width="21" height="14" viewBox="0 0 21 14" fill="none" xmlns="http://www.w3.org/2000/svg">
<path d="M15.754 6.98911C16.1269 7.17467 16.488 7.3892 16.8348 7.62862C17.4605 8.06102 18.0275 8.56048 18.5412 9.12094C19.226 9.86817 19.7879 10.6993 20.2297 11.612C20.509 12.1892 20.7301 12.7882 20.9051 13.4048C20.9186 13.4521 20.914 13.47 20.8575 13.47C19.6757 13.4685 18.4937 13.4683 17.3118 13.4705C17.2491 13.4706 17.2382 13.4379 17.2233 13.3922C16.9642 12.5972 16.5927 11.8598 16.0845 11.1948C15.313 10.1856 14.3418 9.45321 13.122 9.06905C12.78 8.96133 12.4298 8.8929 12.0745 8.84891C12.0323 8.84375 12.0196 8.85695 12.0232 8.89639C12.0251 8.91642 12.0235 8.93675 12.0235 8.95708C12.0235 10.4286 12.0235 11.9003 12.0235 13.3719C12.0235 13.4688 12.0235 13.4685 11.9253 13.4688C11.4531 13.4709 10.9811 13.4629 10.5103 13.4254C8.72469 13.2829 7.04078 12.8114 5.50797 11.8598C4.78603 11.4116 4.13563 10.8748 3.55554 10.2529C2.42869 9.04523 1.65145 7.63256 1.11652 6.07864C0.828136 5.24083 0.620073 4.3827 0.475808 3.50849C0.378065 2.91541 0.308206 2.3196 0.263502 1.72031C0.236225 1.35481 0.224101 0.988708 0.206068 0.622758C0.202583 0.552359 0.215767 0.529146 0.2929 0.529298C1.41929 0.53218 2.54568 0.531725 3.67192 0.530056C3.73072 0.529904 3.75239 0.538553 3.7536 0.605917C3.76299 1.13148 3.79739 1.65552 3.85528 2.1782C3.95954 3.12038 4.14457 4.04482 4.44734 4.94407C4.71072 5.72634 5.05759 6.4681 5.52494 7.15039C6.06896 7.94465 6.73452 8.6104 7.58238 9.08013C7.88713 9.24899 8.20703 9.38221 8.5439 9.474C8.61073 9.4922 8.62543 9.47946 8.62512 9.4127C8.62315 8.86909 8.62406 8.32547 8.62406 7.78185C8.62406 5.39999 8.62406 3.01813 8.62421 0.636261C8.62421 0.512305 8.61224 0.531877 8.72832 0.531725C9.79667 0.531118 10.8649 0.53218 11.9332 0.529753C12.0049 0.529601 12.0252 0.545077 12.0251 0.619875C12.0226 2.26589 12.0232 3.91206 12.0232 5.55808C12.0232 5.65382 12.0229 5.65109 12.1199 5.63637C12.8469 5.52516 13.4742 5.1941 14.0473 4.75063C14.9282 4.0691 15.5965 3.20975 16.1215 2.23343C16.4038 1.70832 16.6279 1.15939 16.7878 0.584676C16.7988 0.544925 16.8154 0.530208 16.8595 0.53036C17.9378 0.531877 19.0162 0.531573 20.0947 0.531725C20.1094 0.531725 20.1242 0.534456 20.1565 0.537642C19.5917 3.31034 18.0698 5.41638 15.754 6.98911Z" fill="#222222"/>
</svg>
