<?xml version="1.0" encoding="utf-8"?><svg width="110" height="84" viewBox="0 0 110 84" xmlns="http://www.w3.org/2000/svg" xmlns:xlink="http://www.w3.org/1999/xlink"><svg width="15" height="13" fill="none" viewBox="-1 -1 15 13" id="black-right-arrow" x="62" y="63" xmlns="http://www.w3.org/2000/svg"><path d="M8.005 1.571 11.75 5.62 8.005 9.667" stroke="#222" stroke-width="1.518" stroke-linecap="round" stroke-linejoin="round"/><path d="M11.457 5.62H1.63" stroke="#222" stroke-width="1.518" stroke-linecap="round"/></svg><svg width="18" height="18" fill="none" viewBox="-1 -1 18 18" id="call" x="26" y="63" xmlns="http://www.w3.org/2000/svg"><path d="m14.024 10.716-2.116-.241a1.658 1.658 0 0 0-1.367.475l-1.533 1.533A12.538 12.538 0 0 1 3.516 6.99l1.542-1.54a1.66 1.66 0 0 0 .475-1.366l-.242-2.1A1.668 1.668 0 0 0 3.633.508H2.19C1.25.508.466 1.29.525 2.233c.441 7.116 6.133 12.8 13.241 13.242.942.058 1.725-.726 1.725-1.667v-1.442a1.652 1.652 0 0 0-1.466-1.65z" fill="#333"/></svg><svg width="18" height="18" fill="none" viewBox="-1 -1 18 18" id="clock" x="44" y="63" xmlns="http://www.w3.org/2000/svg"><path d="M8 5v3l1.5 1.5M8 15A7 7 0 1 0 8 1a7 7 0 0 0 0 14z" stroke="#AEAEAE" stroke-width="2" stroke-linecap="round" stroke-linejoin="round"/></svg><svg width="22" height="22" fill="none" viewBox="-1 -1 22 22" id="comments" x="75" xmlns="http://www.w3.org/2000/svg"><path opacity=".5" clip-rule="evenodd" d="M19 9.5a8.38 8.38 0 0 1-.9 3.8 8.5 8.5 0 0 1-7.6 4.7 8.38 8.38 0 0 1-3.8-.9L1 19l1.9-5.7A8.38 8.38 0 0 1 2 9.5a8.5 8.5 0 0 1 4.7-7.6 8.38 8.38 0 0 1 3.8-.9h.5a8.48 8.48 0 0 1 8 8v.5z" stroke="#fff" stroke-width="2" stroke-linecap="round" stroke-linejoin="round"/></svg><svg width="23" height="23" fill="none" viewBox="-1 -1 23 23" id="comments-gray" x="52" xmlns="http://www.w3.org/2000/svg"><path clip-rule="evenodd" d="M20.002 10.142a8.38 8.38 0 0 1-.94 3.79 8.5 8.5 0 0 1-7.649 4.62 8.38 8.38 0 0 1-3.79-.94l-5.72 1.84 1.96-5.68a8.38 8.38 0 0 1-.86-3.809 8.5 8.5 0 0 1 4.78-7.55 8.38 8.38 0 0 1 3.809-.86l.5.005a8.48 8.48 0 0 1 7.915 8.084l-.005.5v0z" stroke="#AEAEAE" stroke-width="2" stroke-linecap="round" stroke-linejoin="round"/></svg><svg width="23" height="23" fill="none" viewBox="-1 -1 23 23" id="comments-purple" y="40" xmlns="http://www.w3.org/2000/svg"><path clip-rule="evenodd" d="M19.995 10.468a8.38 8.38 0 0 1-.94 3.79 8.5 8.5 0 0 1-7.649 4.62 8.38 8.38 0 0 1-3.79-.94l-5.72 1.84 1.96-5.68a8.38 8.38 0 0 1-.86-3.809 8.5 8.5 0 0 1 4.78-7.55 8.38 8.38 0 0 1 3.809-.86l.5.005A8.48 8.48 0 0 1 20 9.968l-.005.5v0z" stroke="#7241FF" stroke-width="2" stroke-linecap="round" stroke-linejoin="round"/></svg><svg width="23" height="22" fill="none" viewBox="-1 -1 23 22" id="comments-white" x="23" y="40" xmlns="http://www.w3.org/2000/svg"><path clip-rule="evenodd" d="M19.5 9.5a8.38 8.38 0 0 1-.9 3.8A8.5 8.5 0 0 1 11 18a8.379 8.379 0 0 1-3.8-.9L1.5 19l1.9-5.7a8.38 8.38 0 0 1-.9-3.8 8.5 8.5 0 0 1 4.7-7.6A8.38 8.38 0 0 1 11 1h.5a8.48 8.48 0 0 1 8 8v.5z" stroke="#fff" stroke-width="2" stroke-linecap="round" stroke-linejoin="round"/></svg><svg width="24" height="22" fill="none" viewBox="-1 -1 24 22" id="doubble-black-right-arrow" y="18" xmlns="http://www.w3.org/2000/svg"><path d="M13.498 16.666 20.165 10l-6.667-6.667m-11.666 15 8.334-8.334-8.334-8.333" stroke="#323232" stroke-width="2.5" stroke-linecap="round" stroke-linejoin="round"/></svg><svg width="18" height="19" fill="none" viewBox="-1 -1 18 19" id="navigate" x="75" y="44" xmlns="http://www.w3.org/2000/svg"><path clip-rule="evenodd" d="M1 8.132 15 1.5l-6.632 14-1.473-5.895L1 8.132z" stroke="#87909E" stroke-width="1.5" stroke-linecap="round" stroke-linejoin="round"/></svg><svg width="23" height="20" fill="none" viewBox="-1 -1 23 20" id="pausesvg" x="46" y="40" xmlns="http://www.w3.org/2000/svg"><path fill="#fff" d="M5.971 3H9.5v12H5.971zM11.5 3h3.529v12H11.5z"/></svg><svg width="13" height="14" fill="none" viewBox="-1 -1 13 14" id="play-black" x="97" xmlns="http://www.w3.org/2000/svg"><path fill-rule="evenodd" clip-rule="evenodd" d="M.75 1.082A1 1 0 0 1 2.29.24l7.652 4.92a1 1 0 0 1 0 1.682l-7.65 4.918a1 1 0 0 1-1.541-.84V1.081z" fill="#222"/></svg><svg width="19" height="22" fill="none" viewBox="-1 -1 19 22" id="play-black-large" x="75" y="22" xmlns="http://www.w3.org/2000/svg"><path fill-rule="evenodd" clip-rule="evenodd" d="M.917 1.803C.917.484 2.375-.312 3.485.4l12.75 8.197a1.667 1.667 0 0 1 0 2.804l-12.75 8.197c-1.11.713-2.568-.083-2.568-1.402V1.803z" fill="#222"/></svg><svg width="13" height="14" fill="none" viewBox="-1 -1 13 14" id="play-white" x="97" y="14" xmlns="http://www.w3.org/2000/svg"><path fill-rule="evenodd" clip-rule="evenodd" d="M.75 1.082A1 1 0 0 1 2.29.24l7.652 4.92a1 1 0 0 1 0 1.682l-7.65 4.918a1 1 0 0 1-1.541-.84V1.081z" fill="#fff"/></svg><svg width="13" height="21" fill="none" viewBox="-1 -1 13 21" id="single-black-right-arrow" y="63" xmlns="http://www.w3.org/2000/svg"><path d="m1 18 8.5-8.5L1 1" stroke="#222" stroke-width="2" stroke-linecap="round" stroke-linejoin="round"/></svg><svg width="13" height="21" fill="none" viewBox="-1 -1 13 21" id="single-white-right-arrow" x="13" y="63" xmlns="http://www.w3.org/2000/svg"><path d="M1.5 18 10 9.5 1.5 1" stroke="#fff" stroke-width="2" stroke-linecap="round" stroke-linejoin="round"/></svg><svg width="25" height="18" fill="none" viewBox="-1 -1 25 18" id="social-ds" x="27" xmlns="http://www.w3.org/2000/svg"><path d="M8.099.235c-.745 0-2.992.87-3.395 1.043-.403.174-.85.716-1.358 1.611-.508.895-.917 1.941-1.579 3.48C1.105 7.908.95 10.875.972 11.78c.022.905.131 1.612 1.104 2.148.973.535 1.833 1.095 2.738 1.432.906.337 1.524.579 1.943.242.42-.337.696-.927.696-.927s.397-.526-.353-.842c-.751-.316-1.126-.537-1.093-.864.033-.326.088-.505.275-.463.188.043.63.8 2.33 1.148 1.7.347 3.358.295 3.358.295s1.658.052 3.358-.295c1.7-.348 2.142-1.105 2.33-1.147.188-.043.243.136.276.463.033.326-.343.547-1.093.863-.751.316-.354.842-.354.842s.277.59.696.927c.42.337 1.038.095 1.943-.242.906-.337 1.766-.897 2.738-1.432.973-.536 1.082-1.243 1.104-2.148.022-.906-.132-3.873-.795-5.412-.662-1.539-1.07-2.585-1.578-3.48s-.955-1.437-1.358-1.61c-.403-.175-2.65-1.044-3.395-1.044-.746 0-.966.495-.966.495l-.26.548S12.871.962 11.982.961c-.89 0-2.658.317-2.658.317L9.064.73S8.845.235 8.1.235zm.08 6.57h.028c1.087 0 1.968.907 1.968 2.026 0 1.118-.881 2.025-1.968 2.025-1.086 0-1.967-.907-1.967-2.025 0-1.108.864-2.01 1.94-2.025zm7.554 0h.027c1.076.016 1.94.918 1.94 2.026 0 1.118-.88 2.025-1.967 2.025-1.086 0-1.967-.907-1.967-2.025 0-1.119.88-2.025 1.967-2.025z" fill="#222"/></svg><svg width="24" height="21" fill="none" viewBox="-1 -1 24 21" id="social-tg" x="24" y="18" xmlns="http://www.w3.org/2000/svg"><path d="M21.238.941a.598.598 0 0 0-.23.042L.745 8.688a.651.651 0 0 0 .021 1.226l4.696 1.583 2.83 5.67.011.011a.302.302 0 0 0 .273.168.313.313 0 0 0 .199-.073l2.652-2.254-2.967-2.243.23 2.956-2.127-4.413 11.32-6.803-9.423 8.25 7.338 5.565c.241.189.524.273.807.273.577 0 1.143-.377 1.3-1.017l3.962-15.86c.105-.398-.23-.786-.629-.786z" fill="#222"/></svg><svg width="23" height="16" fill="none" viewBox="-1 -1 23 16" id="social-vk" x="52" y="23" xmlns="http://www.w3.org/2000/svg"><path d="M15.754 6.99c.373.185.734.4 1.08.639a10.324 10.324 0 0 1 3.395 3.983c.28.577.501 1.176.676 1.793.014.047.009.065-.047.065-1.182-.002-2.364-.002-3.546 0-.063 0-.074-.032-.089-.078a7.32 7.32 0 0 0-1.139-2.197c-.771-1.01-1.742-1.742-2.962-2.126a5.878 5.878 0 0 0-1.047-.22c-.043-.005-.055.008-.052.047.002.02 0 .04 0 .061v4.415c0 .097 0 .097-.098.097-.472.002-.944-.006-1.415-.044-1.785-.142-3.47-.614-5.002-1.565a9.546 9.546 0 0 1-1.952-1.607c-1.127-1.208-1.905-2.62-2.44-4.174a15.762 15.762 0 0 1-.64-2.57A20.25 20.25 0 0 1 .264 1.72C.236 1.355.224.99.206.623.203.553.216.529.293.529 1.419.532 2.546.532 3.672.53c.059 0 .08.009.082.076.009.525.043 1.05.101 1.572.105.942.29 1.867.592 2.766A8.89 8.89 0 0 0 5.525 7.15c.544.795 1.21 1.46 2.057 1.93.305.169.625.302.962.394.067.018.081.005.081-.061-.002-.544 0-1.088 0-1.631V.636c0-.124-.013-.104.103-.104 1.069 0 2.137 0 3.205-.002.072 0 .092.015.092.09-.002 1.646-.002 3.292-.002 4.938 0 .096 0 .093.097.078.727-.11 1.354-.442 1.927-.885.881-.682 1.55-1.541 2.075-2.518a8.006 8.006 0 0 0 .666-1.648c.01-.04.027-.055.072-.055 1.078.002 2.156.002 3.235.002.014 0 .03.002.062.006-.565 2.772-2.087 4.878-4.403 6.451z" fill="#222"/></svg><svg width="27" height="18" fill="none" viewBox="-1 -1 27 18" id="social-yt" xmlns="http://www.w3.org/2000/svg"><path d="M12.805.244c-1.424 0-2.46-.024-3.495.006C7.482.3 5.652.348 3.83.54c-1.263.133-2.24.932-2.57 2.112-.224.804-.32 1.626-.38 2.452C.765 6.634.785 8.167.821 9.698c.029 1.187.13 2.372.413 3.536.295 1.215 1.37 2.072 2.664 2.19 1.516.14 3.034.212 4.553.273 2.508.101 5.017.07 7.525.027a56.105 56.105 0 0 0 5.029-.3c1.326-.142 2.321-.909 2.643-2.134.209-.795.307-1.607.365-2.425.113-1.588.068-3.177.05-4.765a14.768 14.768 0 0 0-.377-3.254C23.365 1.494 22.38.668 20.943.532 19.477.394 18.006.346 16.535.284c-1.373-.059-2.745-.006-3.73-.04zM9.492 8.208V4.955c0-.348.006-.351.34-.186.415.206.828.416 1.243.62 1.776.88 3.552 1.758 5.326 2.639.084.04.208.059.208.177 0 .088-.098.111-.167.145-2.224 1.105-4.45 2.208-6.672 3.316-.243.121-.282.046-.28-.178.006-1.092.002-2.186.002-3.28z" fill="#222"/></svg><svg width="14" height="12" fill="none" viewBox="-1 -1 14 12" id="white-right-arrow" x="77" y="63" xmlns="http://www.w3.org/2000/svg"><path d="m7.433.762 3.745 4.048-3.745 4.047" stroke="#fff" stroke-width="1.518" stroke-linecap="round" stroke-linejoin="round"/><path d="M10.885 4.81H1.059" stroke="#fff" stroke-width="1.518" stroke-linecap="round"/></svg></svg>