<?xml version="1.0" encoding="utf-8"?><svg width="237" height="124" viewBox="0 0 237 124" xmlns="http://www.w3.org/2000/svg" xmlns:xlink="http://www.w3.org/1999/xlink"><svg width="15" height="13" fill="none" viewBox="-1 -1 15 13" id="black-right-arrow" x="75" y="39" xmlns="http://www.w3.org/2000/svg"><path d="M8.005 1.571 11.75 5.62 8.005 9.667" stroke="#222" stroke-width="1.518" stroke-linecap="round" stroke-linejoin="round"/><path d="M11.457 5.62H1.63" stroke="#222" stroke-width="1.518" stroke-linecap="round"/></svg><svg width="9" height="15" fill="none" viewBox="-1 -1 9 15" id="black-right-menu-arrow" x="115" y="57" xmlns="http://www.w3.org/2000/svg"><path d="M1.455 11.5 6 6.5l-4.545-5" stroke="#222" stroke-width="2" stroke-linecap="round" stroke-linejoin="round"/></svg><svg width="18" height="18" fill="none" viewBox="-1 -1 18 18" id="call" x="132" y="79" xmlns="http://www.w3.org/2000/svg"><path d="m14.024 10.716-2.116-.241a1.658 1.658 0 0 0-1.367.475l-1.533 1.533A12.538 12.538 0 0 1 3.516 6.99l1.542-1.54a1.66 1.66 0 0 0 .475-1.366l-.242-2.1A1.668 1.668 0 0 0 3.633.508H2.19C1.25.508.466 1.29.525 2.233c.441 7.116 6.133 12.8 13.241 13.242.942.058 1.725-.726 1.725-1.667v-1.442a1.652 1.652 0 0 0-1.466-1.65z" fill="#333"/></svg><svg width="18" height="18" fill="none" viewBox="-1 -1 18 18" id="clock" x="150" y="79" xmlns="http://www.w3.org/2000/svg"><path d="M8 5v3l1.5 1.5M8 15A7 7 0 1 0 8 1a7 7 0 0 0 0 14z" stroke="#AEAEAE" stroke-width="2" stroke-linecap="round" stroke-linejoin="round"/></svg><svg width="22" height="22" fill="none" viewBox="-1 -1 22 22" id="comments" y="102" xmlns="http://www.w3.org/2000/svg"><path opacity=".5" clip-rule="evenodd" d="M19 9.5a8.38 8.38 0 0 1-.9 3.8 8.5 8.5 0 0 1-7.6 4.7 8.38 8.38 0 0 1-3.8-.9L1 19l1.9-5.7A8.38 8.38 0 0 1 2 9.5a8.5 8.5 0 0 1 4.7-7.6 8.38 8.38 0 0 1 3.8-.9h.5a8.48 8.48 0 0 1 8 8v.5z" stroke="#fff" stroke-width="2" stroke-linecap="round" stroke-linejoin="round"/></svg><svg width="23" height="23" fill="none" viewBox="-1 -1 23 23" id="comments-gray" y="79" xmlns="http://www.w3.org/2000/svg"><path clip-rule="evenodd" d="M20.002 10.142a8.38 8.38 0 0 1-.94 3.79 8.5 8.5 0 0 1-7.649 4.62 8.38 8.38 0 0 1-3.79-.94l-5.72 1.84 1.96-5.68a8.38 8.38 0 0 1-.86-3.809 8.5 8.5 0 0 1 4.78-7.55 8.38 8.38 0 0 1 3.809-.86l.5.005a8.48 8.48 0 0 1 7.915 8.084l-.005.5v0z" stroke="#AEAEAE" stroke-width="2" stroke-linecap="round" stroke-linejoin="round"/></svg><svg width="23" height="23" fill="none" viewBox="-1 -1 23 23" id="comments-purple" x="23" y="79" xmlns="http://www.w3.org/2000/svg"><path clip-rule="evenodd" d="M19.995 10.468a8.38 8.38 0 0 1-.94 3.79 8.5 8.5 0 0 1-7.649 4.62 8.38 8.38 0 0 1-3.79-.94l-5.72 1.84 1.96-5.68a8.38 8.38 0 0 1-.86-3.809 8.5 8.5 0 0 1 4.78-7.55 8.38 8.38 0 0 1 3.809-.86l.5.005A8.48 8.48 0 0 1 20 9.968l-.005.5v0z" stroke="#7241FF" stroke-width="2" stroke-linecap="round" stroke-linejoin="round"/></svg><svg width="23" height="22" fill="none" viewBox="-1 -1 23 22" id="comments-white" x="46" y="79" xmlns="http://www.w3.org/2000/svg"><path clip-rule="evenodd" d="M19.5 9.5a8.38 8.38 0 0 1-.9 3.8A8.5 8.5 0 0 1 11 18a8.379 8.379 0 0 1-3.8-.9L1.5 19l1.9-5.7a8.38 8.38 0 0 1-.9-3.8 8.5 8.5 0 0 1 4.7-7.6A8.38 8.38 0 0 1 11 1h.5a8.48 8.48 0 0 1 8 8v.5z" stroke="#fff" stroke-width="2" stroke-linecap="round" stroke-linejoin="round"/></svg><svg width="24" height="22" fill="none" viewBox="-1 -1 24 22" id="doubble-black-right-arrow" y="57" xmlns="http://www.w3.org/2000/svg"><path d="M13.498 16.666 20.165 10l-6.667-6.667m-11.666 15 8.334-8.334-8.334-8.333" stroke="#323232" stroke-width="2.5" stroke-linecap="round" stroke-linejoin="round"/></svg><svg width="21" height="16" fill="none" viewBox="-1 -1 21 16" id="header-ds" x="94" y="57" xmlns="http://www.w3.org/2000/svg"><path fill-rule="evenodd" clip-rule="evenodd" d="M13.084 12.042c.478.597 1.05 1.272 1.05 1.272 3.514-.11 4.866-2.388 4.866-2.388 0-5.058-2.29-9.159-2.29-9.159C14.42.071 12.242.117 12.242.117l-.223.252c2.703.817 3.96 1.995 3.96 1.995A13.076 13.076 0 0 0 11.192.856 13.618 13.618 0 0 0 7.98.888c-.083 0-.155.012-.235.025L7.71.92c-.556.047-1.908.251-3.61.99-.588.267-.938.455-.938.455s1.32-1.24 4.183-2.058l-.16-.188S5.007.07 2.717 1.768c0 0-2.29 4.1-2.29 9.158 0 0 1.336 2.278 4.85 2.388 0 0 .589-.707 1.066-1.304-2.02-.597-2.783-1.854-2.783-1.854s.159.11.445.268a.22.22 0 0 0 .064.047c.024.015.048.027.071.039.024.012.048.024.072.04.398.22.795.392 1.16.533.653.252 1.432.503 2.338.676 1.193.22 2.593.298 4.12.015.746-.125 1.51-.345 2.305-.675a9.14 9.14 0 0 0 1.829-.927s-.795 1.288-2.879 1.87zm-5.897-5.78c-.899 0-1.609.81-1.609 1.796 0 .987.726 1.796 1.61 1.796.899 0 1.609-.81 1.609-1.796.015-.986-.71-1.795-1.61-1.795zm5.76 0c-.9 0-1.61.81-1.61 1.796 0 .987.726 1.796 1.61 1.796.899 0 1.609-.809 1.609-1.796 0-.986-.71-1.795-1.61-1.795z" fill="#fff"/></svg><svg width="237" height="39" fill="none" viewBox="-1 -1 237 39" id="header-logo" xmlns="http://www.w3.org/2000/svg"><g clip-path="url(#aka)"><path d="M112.911 13.424a4.359 4.359 0 0 0-2.495-.662c-2.801 0-4.53 1.54-5.187 4.618h-.533c.148-3.075-1.173-4.615-3.962-4.618-2.788-.003-4.517 1.536-5.187 4.618h-.543l.604-4.315H92.19v12.312h3.42v-4.835a5.26 5.26 0 0 1 .862-3.21 3.122 3.122 0 0 1 2.636-1.148c1.047 0 1.785.35 2.212 1.05.428.699.649 1.802.665 3.308v4.835h3.301v-4.835a5.27 5.27 0 0 1 .863-3.21 3.129 3.129 0 0 1 2.637-1.148c1.047 0 1.784.35 2.212 1.05.427.699.649 1.802.664 3.308v4.835h3.302v-4.835a16.26 16.26 0 0 0-.543-4.76 4.216 4.216 0 0 0-1.509-2.358zm13.545.222a9.636 9.636 0 0 0-3.702-.605 6.122 6.122 0 0 0-2.967.728 7.559 7.559 0 0 0-2.523 2.301l2.674 1.754a4.099 4.099 0 0 1 1.288-1.03 3.538 3.538 0 0 1 1.528-.303 4.598 4.598 0 0 1 2.131.383 2.004 2.004 0 0 1 .967 1.253h-3.773a6.515 6.515 0 0 0-2.829.543 3.92 3.92 0 0 0-1.708 1.418 3.45 3.45 0 0 0-.566 1.92c0 1.26.376 2.186 1.128 2.778.751.593 1.851.889 3.301.889a4.446 4.446 0 0 0 3.301-1.172c.792-.775 1.283-1.995 1.471-3.645h.279l-.472 4.533h3.278v-6.243a7.714 7.714 0 0 0-.675-3.55 4.084 4.084 0 0 0-2.131-1.952zm-1.17 7.742a2.226 2.226 0 0 1-1.184.643 8.726 8.726 0 0 1-2.013.184 1.96 1.96 0 0 1-1.245-.326 1.004 1.004 0 0 1-.382-.804c0-.685.542-1.03 1.627-1.03h3.772c-.059.49-.258.954-.575 1.333zm-35.955-8.304h-3.32v12.293h3.32V13.084zM57.088 9.25l-6.919 16.127h3.74l5.065-11.812 2.316 5.384-3.665.019-.853 3.427h6.003l1.288 2.982h3.744L60.847 9.25h-3.76zm23.839 4.273a5.358 5.358 0 0 0-2.995-.761 9.47 9.47 0 0 0-2.494.265 2.765 2.765 0 0 0-1.547 1.271 7.576 7.576 0 0 0-.868 3.082h-.396l.604-4.292h-3.434v12.29h3.42v-4.836a5.26 5.26 0 0 1 .862-3.21 3.127 3.127 0 0 1 2.637-1.148c1.235 0 2.084.345 2.556 1.03.471.686.721 1.792.721 3.31v4.853h3.302v-4.835a14.092 14.092 0 0 0-.604-4.557 4.49 4.49 0 0 0-1.764-2.462zm6.791-4.273a1.756 1.756 0 0 0-1.264.506 1.746 1.746 0 0 0 0 2.457 1.758 1.758 0 0 0 1.264.506 1.577 1.577 0 0 0 1.189-.506 1.746 1.746 0 0 0 0-2.457 1.58 1.58 0 0 0-1.189-.506zm48.33 0h-3.301v3.833h-2.231v3.427h2.231v2.477a16.301 16.301 0 0 0 .363 4.173 2.667 2.667 0 0 0 1.849 1.711c.99.338 2.693.506 5.107.506V22.07c-.98.027-1.96-.018-2.933-.137a1.052 1.052 0 0 1-.887-.686 8.645 8.645 0 0 1-.179-2.24V16.51h3.999v-3.427h-3.999l-.019-3.833zm37.582 4.273a5.366 5.366 0 0 0-2.995-.761 9.474 9.474 0 0 0-2.494.264 2.773 2.773 0 0 0-1.552 1.272 7.572 7.572 0 0 0-.863 3.082h-.401l.604-4.292h-3.419v12.29h3.419v-4.836a5.256 5.256 0 0 1 .863-3.21 3.125 3.125 0 0 1 2.636-1.148c1.231 0 2.085.345 2.552 1.03.466.686.726 1.792.726 3.309v4.854h3.301v-4.835a13.946 13.946 0 0 0-.604-4.557 4.46 4.46 0 0 0-1.773-2.462zm41.987 4.396a5.152 5.152 0 0 1-.886 3.204 3.068 3.068 0 0 1-2.613 1.149c-1.236 0-2.094-.342-2.575-1.026-.472-.685-.703-1.796-.703-3.308v-4.854h-3.301v4.835c-.047 1.54.15 3.078.585 4.556a4.68 4.68 0 0 0 1.768 2.477c.915.532 1.962.79 3.019.747a9.242 9.242 0 0 0 2.471-.26 2.706 2.706 0 0 0 1.551-1.253 7.507 7.507 0 0 0 .882-3.1h.406l-.604 4.291h3.419V13.088h-3.419v4.83zm18.699-1.612a5.669 5.669 0 0 0-1.853-2.396 4.237 4.237 0 0 0-2.594-.87 4.313 4.313 0 0 0-2.976 1.11 5.59 5.59 0 0 0-1.627 3.205h-.382l.198-4.254V9.25h-3.428v16.127h3.419l-.198-4.353h.301c.371 3.104 1.932 4.656 4.683 4.656a4.344 4.344 0 0 0 2.575-.827 5.714 5.714 0 0 0 1.887-2.198c.451-.9.685-1.895.684-2.902a8.43 8.43 0 0 0-.689-3.446zm-3.018 4.618c-.265.422-.64.764-1.085.988a3.354 3.354 0 0 1-1.589.359 3.295 3.295 0 0 1-1.651-.42 3.392 3.392 0 0 1-1.165-1.13 2.581 2.581 0 0 1-.424-1.371c0-.484.148-.956.424-1.352.291-.421.686-.76 1.146-.983a3.768 3.768 0 0 1 1.67-.36 2.992 2.992 0 0 1 2.212.832 2.754 2.754 0 0 1 .844 2.08c0 .48-.132.949-.382 1.357zm-85.224-7.841h-3.32v12.293h3.32V13.084zm56.857-3.834h-3.32v16.127h3.32V9.25zm-58.488 0a1.764 1.764 0 0 0-1.269.506 1.745 1.745 0 0 0 0 2.457 1.773 1.773 0 0 0 1.269.506 1.575 1.575 0 0 0 1.183-.506 1.745 1.745 0 0 0 0-2.457 1.57 1.57 0 0 0-1.183-.506zm45.83 3.45a5.802 5.802 0 0 1 1.887.26c.55.205 1.026.57 1.367 1.05a6.868 6.868 0 0 1 1.09 2.254l2.985-1.853c-.764-1.815-1.756-3.124-2.976-3.927a7.532 7.532 0 0 0-4.343-1.234 7.116 7.116 0 0 0-3.882 1.03 6.506 6.506 0 0 0-2.494 2.836 9.619 9.619 0 0 0-.845 4.131 10.025 10.025 0 0 0 .845 4.193 6.724 6.724 0 0 0 2.494 2.902 7.065 7.065 0 0 0 3.882 1.05 7.9 7.9 0 0 0 4.244-1.13 7.453 7.453 0 0 0 2.853-3.384l-3.075-1.891a4.625 4.625 0 0 1-1.466 2.32 4.05 4.05 0 0 1-2.358.625 4.239 4.239 0 0 1-2.872-.988c-.755-.672-1.128-1.891-1.128-3.71 0-1.665.364-2.837 1.085-3.508a3.802 3.802 0 0 1 2.707-1.026zm-32.828.908a5.652 5.652 0 0 0-3.099-.889 5.758 5.758 0 0 0-3.117.89 6.223 6.223 0 0 0-2.254 2.362 6.464 6.464 0 0 0-.826 3.205 6.638 6.638 0 0 0 .826 3.262 6.452 6.452 0 0 0 2.235 2.363 5.924 5.924 0 0 0 3.136.865 5.806 5.806 0 0 0 3.099-.865 6.432 6.432 0 0 0 2.23-2.363 6.593 6.593 0 0 0 .826-3.262 6.41 6.41 0 0 0-.826-3.205 6.265 6.265 0 0 0-2.23-2.363zm-1.028 7.86a2.599 2.599 0 0 1-2.09.908 2.628 2.628 0 0 1-2.094-.908 3.478 3.478 0 0 1-.764-2.278 3.366 3.366 0 0 1 .764-2.24 2.616 2.616 0 0 1 2.094-.945 2.585 2.585 0 0 1 2.09.907 3.39 3.39 0 0 1 .764 2.26 3.42 3.42 0 0 1-.764 2.296z" fill="#62154B"/><path d="M36.917 18.5a18.463 18.463 0 0 1-4.428 12.02V6.48a18.459 18.459 0 0 1 4.428 12.02z" fill="#E7AE44"/><path d="M32.489 6.48v24.04c-.382.444-.788.874-1.212 1.285a18.425 18.425 0 0 1-4.924 3.418v-4.15a2.065 2.065 0 0 0-1.363-1.943l-5.588-2.363-5.66-2.41-.117-.053a2.038 2.038 0 0 0-2.198.515l-6.508 6.254a18.618 18.618 0 0 1-3.415-5.247l4.801-4.646 2.769-2.68L25.193 2.902l1.16-1.13A18.738 18.738 0 0 1 31.47 5.38c.354.354.693.718 1.019 1.101zm-6.131 19.38V13.5a1.35 1.35 0 0 0-.83-1.222 1.341 1.341 0 0 0-1.448.276l-.028.028-8.843 8.527 5.57 2.363 4.414 1.891 1.165.496z" fill="#591449"/><path d="m26.353 1.773-1.16 1.13L9.073 18.5l-2.767 2.68-4.801 4.646a18.548 18.548 0 0 1-1.143-10.96 18.521 18.521 0 0 1 5.277-9.67 18.43 18.43 0 0 1 20.715-3.424z" fill="#E7AE44"/><path d="M26.353 31.073v4.15c-.377.184-.764.35-1.16.506v-6.514a2.059 2.059 0 0 1 1.16 1.858zm0-17.527v12.29l-1.16-.473v-9.765a.44.44 0 0 0 0-.114.51.51 0 0 0-.943-.09l-3.471 8.088-5.57-2.364 8.843-8.555a1.366 1.366 0 0 1 2.301.983z" fill="#EFF0F1"/><path d="M25.193 29.215v6.513A18.428 18.428 0 0 1 18.458 37a18.22 18.22 0 0 1-3.3-.293l4.239-9.955 5.588 2.364.203.085.005.014zm0-13.617v9.76l-4.414-1.89 3.428-8.092a.514.514 0 0 1 .986.222z" fill="#EED8D1"/><path d="m19.397 26.753-4.216 9.954a18.38 18.38 0 0 1-10.262-5.634l6.48-6.272.127-.123a2.039 2.039 0 0 1 2.07-.393l.118.052 5.683 2.416z" fill="#EFF0F1"/></g><defs><clipPath id="aka"><path fill="#fff" d="M0 0h235v37H0z"/></clipPath></defs></svg><svg width="22" height="19" fill="none" viewBox="-1 -1 22 19" id="header-tg" x="92" y="79" xmlns="http://www.w3.org/2000/svg"><path fill-rule="evenodd" clip-rule="evenodd" d="M7.545 16c-.618 0-.513-.232-.726-.816L5 9.243 19 1" fill="#E0E0E0"/><path fill-rule="evenodd" clip-rule="evenodd" d="M7 16c.41 0 .59-.224.818-.49L10 12.967 7.278 11" fill="#999"/><path fill-rule="evenodd" clip-rule="evenodd" d="m7.835 11.219 7.412 5.55c.846.472 1.456.228 1.667-.796L19.93 1.564C20.24.31 19.459-.26 18.65.112L.934 7.035c-1.21.492-1.202 1.176-.22 1.48L5.26 9.953l10.525-6.73c.497-.304.953-.14.578.196" fill="url(#ala)"/><defs><linearGradient id="ala" x1="8.592" y1="8.572" x2="10.605" y2="14.999" gradientUnits="userSpaceOnUse"><stop stop-color="#EFF7FC"/><stop offset="1" stop-color="#fff"/></linearGradient></defs></svg><svg width="23" height="14" fill="none" viewBox="-1 -1 23 14" id="header-vk" x="52" y="39" xmlns="http://www.w3.org/2000/svg"><path fill-rule="evenodd" clip-rule="evenodd" d="M11.468 11.571s.356-.038.538-.23c.167-.177.162-.51.162-.51s-.023-1.552.712-1.782c.724-.225 1.653 1.502 2.64 2.166.745.502 1.31.392 1.31.392l2.636-.036s1.378-.083.725-1.147c-.054-.087-.381-.787-1.96-2.225-1.653-1.506-1.43-1.262.56-3.867 1.212-1.586 1.696-2.554 1.545-2.968-.144-.396-1.036-.29-1.036-.29l-2.967.017s-.22-.03-.383.067c-.16.093-.263.312-.263.312s-.469 1.227-1.095 2.271c-1.321 2.202-1.85 2.318-2.066 2.182-.502-.32-.377-1.28-.377-1.964 0-2.134.33-3.024-.642-3.254-.322-.077-.56-.127-1.385-.136C9.064.56 8.168.573 7.66.817c-.338.162-.598.523-.439.544.196.026.64.118.875.432.304.407.294 1.318.294 1.318s.175 2.513-.408 2.824c-.4.214-.948-.222-2.127-2.22C5.252 2.69 4.797 1.56 4.797 1.56s-.088-.211-.246-.325c-.19-.137-.455-.18-.455-.18l-2.82.018s-.423.012-.578.193c-.138.16-.011.492-.011.492s2.207 5.07 4.707 7.625c2.292 2.342 4.894 2.188 4.894 2.188h1.18z" fill="#fff"/></svg><svg width="23" height="17" fill="none" viewBox="-1 -1 23 17" id="header-yt" x="48" y="57" xmlns="http://www.w3.org/2000/svg"><path fill-rule="evenodd" clip-rule="evenodd" d="M18.21 1.14c.849.233 1.517.92 1.744 1.791.413 1.58.413 4.877.413 4.877s0 3.297-.413 4.877a2.505 2.505 0 0 1-1.744 1.792c-1.54.423-7.71.423-7.71.423s-6.17 0-7.71-.423a2.506 2.506 0 0 1-1.744-1.792C.633 11.105.633 7.808.633 7.808s0-3.296.413-4.877a2.505 2.505 0 0 1 1.744-1.79C4.33.716 10.5.716 10.5.716s6.17 0 7.71.423zM8.65 5.033V11.2l4.933-3.083L8.65 5.033z" fill="#fff"/></svg><svg width="18" height="19" fill="none" viewBox="-1 -1 18 19" id="navigate" x="114" y="79" xmlns="http://www.w3.org/2000/svg"><path clip-rule="evenodd" d="M1 8.132 15 1.5l-6.632 14-1.473-5.895L1 8.132z" stroke="#87909E" stroke-width="1.5" stroke-linecap="round" stroke-linejoin="round"/></svg><svg width="23" height="20" fill="none" viewBox="-1 -1 23 20" id="pausesvg" x="69" y="79" xmlns="http://www.w3.org/2000/svg"><path fill="#fff" d="M5.971 3H9.5v12H5.971zM11.5 3h3.529v12H11.5z"/></svg><svg width="13" height="14" fill="none" viewBox="-1 -1 13 14" id="play-black" x="124" y="57" xmlns="http://www.w3.org/2000/svg"><path fill-rule="evenodd" clip-rule="evenodd" d="M.75 1.082A1 1 0 0 1 2.29.24l7.652 4.92a1 1 0 0 1 0 1.682l-7.65 4.918a1 1 0 0 1-1.541-.84V1.081z" fill="#222"/></svg><svg width="19" height="22" fill="none" viewBox="-1 -1 19 22" id="play-black-large" x="22" y="102" xmlns="http://www.w3.org/2000/svg"><path fill-rule="evenodd" clip-rule="evenodd" d="M.917 1.803C.917.484 2.375-.312 3.485.4l12.75 8.197a1.667 1.667 0 0 1 0 2.804l-12.75 8.197c-1.11.713-2.568-.083-2.568-1.402V1.803z" fill="#222"/></svg><svg width="13" height="14" fill="none" viewBox="-1 -1 13 14" id="play-white" x="137" y="57" xmlns="http://www.w3.org/2000/svg"><path fill-rule="evenodd" clip-rule="evenodd" d="M.75 1.082A1 1 0 0 1 2.29.24l7.652 4.92a1 1 0 0 1 0 1.682l-7.65 4.918a1 1 0 0 1-1.541-.84V1.081z" fill="#fff"/></svg><svg width="13" height="21" fill="none" viewBox="-1 -1 13 21" id="single-black-right-arrow" x="41" y="102" xmlns="http://www.w3.org/2000/svg"><path d="m1 18 8.5-8.5L1 1" stroke="#222" stroke-width="2" stroke-linecap="round" stroke-linejoin="round"/></svg><svg width="13" height="21" fill="none" viewBox="-1 -1 13 21" id="single-white-right-arrow" x="54" y="102" xmlns="http://www.w3.org/2000/svg"><path d="M1.5 18 10 9.5 1.5 1" stroke="#fff" stroke-width="2" stroke-linecap="round" stroke-linejoin="round"/></svg><svg width="25" height="18" fill="none" viewBox="-1 -1 25 18" id="social-ds" x="27" y="39" xmlns="http://www.w3.org/2000/svg"><path d="M8.099.235c-.745 0-2.992.87-3.395 1.043-.403.174-.85.716-1.358 1.611-.508.895-.917 1.941-1.579 3.48C1.105 7.908.95 10.875.972 11.78c.022.905.131 1.612 1.104 2.148.973.535 1.833 1.095 2.738 1.432.906.337 1.524.579 1.943.242.42-.337.696-.927.696-.927s.397-.526-.353-.842c-.751-.316-1.126-.537-1.093-.864.033-.326.088-.505.275-.463.188.043.63.8 2.33 1.148 1.7.347 3.358.295 3.358.295s1.658.052 3.358-.295c1.7-.348 2.142-1.105 2.33-1.147.188-.043.243.136.276.463.033.326-.343.547-1.093.863-.751.316-.354.842-.354.842s.277.59.696.927c.42.337 1.038.095 1.943-.242.906-.337 1.766-.897 2.738-1.432.973-.536 1.082-1.243 1.104-2.148.022-.906-.132-3.873-.795-5.412-.662-1.539-1.07-2.585-1.578-3.48s-.955-1.437-1.358-1.61c-.403-.175-2.65-1.044-3.395-1.044-.746 0-.966.495-.966.495l-.26.548S12.871.962 11.982.961c-.89 0-2.658.317-2.658.317L9.064.73S8.845.235 8.1.235zm.08 6.57h.028c1.087 0 1.968.907 1.968 2.026 0 1.118-.881 2.025-1.968 2.025-1.086 0-1.967-.907-1.967-2.025 0-1.108.864-2.01 1.94-2.025zm7.554 0h.027c1.076.016 1.94.918 1.94 2.026 0 1.118-.88 2.025-1.967 2.025-1.086 0-1.967-.907-1.967-2.025 0-1.119.88-2.025 1.967-2.025z" fill="#222"/></svg><svg width="24" height="21" fill="none" viewBox="-1 -1 24 21" id="social-tg" x="24" y="57" xmlns="http://www.w3.org/2000/svg"><path d="M21.238.941a.598.598 0 0 0-.23.042L.745 8.688a.651.651 0 0 0 .021 1.226l4.696 1.583 2.83 5.67.011.011a.302.302 0 0 0 .273.168.313.313 0 0 0 .199-.073l2.652-2.254-2.967-2.243.23 2.956-2.127-4.413 11.32-6.803-9.423 8.25 7.338 5.565c.241.189.524.273.807.273.577 0 1.143-.377 1.3-1.017l3.962-15.86c.105-.398-.23-.786-.629-.786z" fill="#222"/></svg><svg width="23" height="16" fill="none" viewBox="-1 -1 23 16" id="social-vk" x="71" y="57" xmlns="http://www.w3.org/2000/svg"><path d="M15.754 6.99c.373.185.734.4 1.08.639a10.324 10.324 0 0 1 3.395 3.983c.28.577.501 1.176.676 1.793.014.047.009.065-.047.065-1.182-.002-2.364-.002-3.546 0-.063 0-.074-.032-.089-.078a7.32 7.32 0 0 0-1.139-2.197c-.771-1.01-1.742-1.742-2.962-2.126a5.878 5.878 0 0 0-1.047-.22c-.043-.005-.055.008-.052.047.002.02 0 .04 0 .061v4.415c0 .097 0 .097-.098.097-.472.002-.944-.006-1.415-.044-1.785-.142-3.47-.614-5.002-1.565a9.546 9.546 0 0 1-1.952-1.607c-1.127-1.208-1.905-2.62-2.44-4.174a15.762 15.762 0 0 1-.64-2.57A20.25 20.25 0 0 1 .264 1.72C.236 1.355.224.99.206.623.203.553.216.529.293.529 1.419.532 2.546.532 3.672.53c.059 0 .08.009.082.076.009.525.043 1.05.101 1.572.105.942.29 1.867.592 2.766A8.89 8.89 0 0 0 5.525 7.15c.544.795 1.21 1.46 2.057 1.93.305.169.625.302.962.394.067.018.081.005.081-.061-.002-.544 0-1.088 0-1.631V.636c0-.124-.013-.104.103-.104 1.069 0 2.137 0 3.205-.002.072 0 .092.015.092.09-.002 1.646-.002 3.292-.002 4.938 0 .096 0 .093.097.078.727-.11 1.354-.442 1.927-.885.881-.682 1.55-1.541 2.075-2.518a8.006 8.006 0 0 0 .666-1.648c.01-.04.027-.055.072-.055 1.078.002 2.156.002 3.235.002.014 0 .03.002.062.006-.565 2.772-2.087 4.878-4.403 6.451z" fill="#222"/></svg><svg width="27" height="18" fill="none" viewBox="-1 -1 27 18" id="social-yt" y="39" xmlns="http://www.w3.org/2000/svg"><path d="M12.805.244c-1.424 0-2.46-.024-3.495.006C7.482.3 5.652.348 3.83.54c-1.263.133-2.24.932-2.57 2.112-.224.804-.32 1.626-.38 2.452C.765 6.634.785 8.167.821 9.698c.029 1.187.13 2.372.413 3.536.295 1.215 1.37 2.072 2.664 2.19 1.516.14 3.034.212 4.553.273 2.508.101 5.017.07 7.525.027a56.105 56.105 0 0 0 5.029-.3c1.326-.142 2.321-.909 2.643-2.134.209-.795.307-1.607.365-2.425.113-1.588.068-3.177.05-4.765a14.768 14.768 0 0 0-.377-3.254C23.365 1.494 22.38.668 20.943.532 19.477.394 18.006.346 16.535.284c-1.373-.059-2.745-.006-3.73-.04zM9.492 8.208V4.955c0-.348.006-.351.34-.186.415.206.828.416 1.243.62 1.776.88 3.552 1.758 5.326 2.639.084.04.208.059.208.177 0 .088-.098.111-.167.145-2.224 1.105-4.45 2.208-6.672 3.316-.243.121-.282.046-.28-.178.006-1.092.002-2.186.002-3.28z" fill="#222"/></svg><svg width="14" height="12" fill="none" viewBox="-1 -1 14 12" id="white-right-arrow" x="90" y="39" xmlns="http://www.w3.org/2000/svg"><path d="m7.433.762 3.745 4.048-3.745 4.047" stroke="#fff" stroke-width="1.518" stroke-linecap="round" stroke-linejoin="round"/><path d="M10.885 4.81H1.059" stroke="#fff" stroke-width="1.518" stroke-linecap="round"/></svg><svg width="11" height="9" fill="none" viewBox="-1 -1 11 9" id="yellow-down-arrow" x="104" y="39" xmlns="http://www.w3.org/2000/svg"><path d="m1.25 1.875 3.25 3.25 3.25-3.25" stroke="#E7AE44" stroke-width="2" stroke-linecap="round" stroke-linejoin="round"/></svg></svg>