<?xml version="1.0" encoding="utf-8"?><svg width="84" height="66" viewBox="0 0 84 66" xmlns="http://www.w3.org/2000/svg" xmlns:xlink="http://www.w3.org/1999/xlink"><svg width="15" height="13" fill="none" viewBox="-1 -1 15 13" id="black-right-arrow" x="69" xmlns="http://www.w3.org/2000/svg"><path d="M8.005 1.571 11.75 5.62 8.005 9.667" stroke="#222" stroke-width="1.518" stroke-linecap="round" stroke-linejoin="round"/><path d="M11.457 5.62H1.63" stroke="#222" stroke-width="1.518" stroke-linecap="round"/></svg><svg width="18" height="18" fill="none" viewBox="-1 -1 18 18" id="clock" x="44" y="45" xmlns="http://www.w3.org/2000/svg"><path d="M8 5v3l1.5 1.5M8 15A7 7 0 1 0 8 1a7 7 0 0 0 0 14z" stroke="#AEAEAE" stroke-width="2" stroke-linecap="round" stroke-linejoin="round"/></svg><svg width="22" height="22" fill="none" viewBox="-1 -1 22 22" id="comments" x="47" xmlns="http://www.w3.org/2000/svg"><path opacity=".5" clip-rule="evenodd" d="M19 9.5a8.38 8.38 0 0 1-.9 3.8 8.5 8.5 0 0 1-7.6 4.7 8.38 8.38 0 0 1-3.8-.9L1 19l1.9-5.7A8.38 8.38 0 0 1 2 9.5a8.5 8.5 0 0 1 4.7-7.6 8.38 8.38 0 0 1 3.8-.9h.5a8.48 8.48 0 0 1 8 8v.5z" stroke="#fff" stroke-width="2" stroke-linecap="round" stroke-linejoin="round"/></svg><svg width="23" height="23" fill="none" viewBox="-1 -1 23 23" id="comments-gray" y="22" xmlns="http://www.w3.org/2000/svg"><path clip-rule="evenodd" d="M20.002 10.142a8.38 8.38 0 0 1-.94 3.79 8.5 8.5 0 0 1-7.649 4.62 8.38 8.38 0 0 1-3.79-.94l-5.72 1.84 1.96-5.68a8.38 8.38 0 0 1-.86-3.809 8.5 8.5 0 0 1 4.78-7.55 8.38 8.38 0 0 1 3.809-.86l.5.005a8.48 8.48 0 0 1 7.915 8.084l-.005.5v0z" stroke="#AEAEAE" stroke-width="2" stroke-linecap="round" stroke-linejoin="round"/></svg><svg width="23" height="23" fill="none" viewBox="-1 -1 23 23" id="comments-purple" x="24" xmlns="http://www.w3.org/2000/svg"><path clip-rule="evenodd" d="M19.995 10.468a8.38 8.38 0 0 1-.94 3.79 8.5 8.5 0 0 1-7.649 4.62 8.38 8.38 0 0 1-3.79-.94l-5.72 1.84 1.96-5.68a8.38 8.38 0 0 1-.86-3.809 8.5 8.5 0 0 1 4.78-7.55 8.38 8.38 0 0 1 3.809-.86l.5.005A8.48 8.48 0 0 1 20 9.968l-.005.5v0z" stroke="#7241FF" stroke-width="2" stroke-linecap="round" stroke-linejoin="round"/></svg><svg width="24" height="22" fill="none" viewBox="-1 -1 24 22" id="doubble-black-right-arrow" xmlns="http://www.w3.org/2000/svg"><path d="M13.498 16.666 20.165 10l-6.667-6.667m-11.666 15 8.334-8.334-8.334-8.333" stroke="#323232" stroke-width="2.5" stroke-linecap="round" stroke-linejoin="round"/></svg><svg width="18" height="19" fill="none" viewBox="-1 -1 18 19" id="navigate" x="26" y="45" xmlns="http://www.w3.org/2000/svg"><path clip-rule="evenodd" d="M1 8.132 15 1.5l-6.632 14-1.473-5.895L1 8.132z" stroke="#87909E" stroke-width="1.5" stroke-linecap="round" stroke-linejoin="round"/></svg><svg width="23" height="20" fill="none" viewBox="-1 -1 23 20" id="pausesvg" x="24" y="23" xmlns="http://www.w3.org/2000/svg"><path fill="#fff" d="M5.971 3H9.5v12H5.971zM11.5 3h3.529v12H11.5z"/></svg><svg width="13" height="14" fill="none" viewBox="-1 -1 13 14" id="play-black" x="69" y="13" xmlns="http://www.w3.org/2000/svg"><path fill-rule="evenodd" clip-rule="evenodd" d="M.75 1.082A1 1 0 0 1 2.29.24l7.652 4.92a1 1 0 0 1 0 1.682l-7.65 4.918a1 1 0 0 1-1.541-.84V1.081z" fill="#222"/></svg><svg width="19" height="22" fill="none" viewBox="-1 -1 19 22" id="play-black-large" x="47" y="22" xmlns="http://www.w3.org/2000/svg"><path fill-rule="evenodd" clip-rule="evenodd" d="M.917 1.803C.917.484 2.375-.312 3.485.4l12.75 8.197a1.667 1.667 0 0 1 0 2.804l-12.75 8.197c-1.11.713-2.568-.083-2.568-1.402V1.803z" fill="#222"/></svg><svg width="13" height="14" fill="none" viewBox="-1 -1 13 14" id="play-white" x="69" y="27" xmlns="http://www.w3.org/2000/svg"><path fill-rule="evenodd" clip-rule="evenodd" d="M.75 1.082A1 1 0 0 1 2.29.24l7.652 4.92a1 1 0 0 1 0 1.682l-7.65 4.918a1 1 0 0 1-1.541-.84V1.081z" fill="#fff"/></svg><svg width="13" height="21" fill="none" viewBox="-1 -1 13 21" id="single-black-right-arrow" y="45" xmlns="http://www.w3.org/2000/svg"><path d="m1 18 8.5-8.5L1 1" stroke="#222" stroke-width="2" stroke-linecap="round" stroke-linejoin="round"/></svg><svg width="13" height="21" fill="none" viewBox="-1 -1 13 21" id="single-white-right-arrow" x="13" y="45" xmlns="http://www.w3.org/2000/svg"><path d="M1.5 18 10 9.5 1.5 1" stroke="#fff" stroke-width="2" stroke-linecap="round" stroke-linejoin="round"/></svg><svg width="14" height="12" fill="none" viewBox="-1 -1 14 12" id="white-right-arrow" x="69" y="41" xmlns="http://www.w3.org/2000/svg"><path d="m7.433.762 3.745 4.048-3.745 4.047" stroke="#fff" stroke-width="1.518" stroke-linecap="round" stroke-linejoin="round"/><path d="M10.885 4.81H1.059" stroke="#fff" stroke-width="1.518" stroke-linecap="round"/></svg></svg>